<svg version="1.1" xmlns="http://www.w3.org/2000/svg" viewBox="0 0 647.0234375 617.890625" width="647.0234375" height="617.890625">
  <!-- svg-source:excalidraw -->
  
  <defs>
    <style>
      @font-face {
        font-family: "Virgil";
        src: url("https://excalidraw.com/Virgil.woff2");
      }
      @font-face {
        font-family: "Cascadia";
        src: url("https://excalidraw.com/Cascadia.woff2");
      }
    </style>
  </defs>
  <rect x="0" y="0" width="647.0234375" height="617.890625" fill="#ffffff"></rect><g stroke-linecap="round" transform="translate(10 10) rotate(0 313.51171875 298.9453125)"><path d="M0.6 0.79 C149.14 1.07, 297.37 1.04, 627.38 0.2 M0.12 -0.25 C169.79 -1.6, 340.22 -1.59, 627.32 -0.33 M626.34 -0.26 C629.35 124.28, 628.83 247.9, 627.16 598.29 M627.36 0.4 C625.5 130.19, 624.92 259.87, 627.08 597.5 M626.84 598.19 C482.91 598.65, 339.43 597.5, 0.8 597.14 M626.77 597.79 C490.23 595.68, 353.13 595.57, 0.01 597.95 M-0.19 597.21 C1 381.55, 0.96 167.26, -0.56 -0.05 M0.24 597.68 C-2 409.97, -1.65 221.98, -0.2 -0.35" stroke="#000000" stroke-width="1" fill="none"></path></g><g stroke-linecap="round" transform="translate(12.77734375 17.1171875) rotate(0 311.01171875 40.197265624999986)"><path d="M0 0 C134.14 0, 268.27 0, 622.02 0 M0 0 C197.52 0, 395.04 0, 622.02 0 M622.02 0 C622.02 24.71, 622.02 49.41, 622.02 80.39 M622.02 0 C622.02 20.52, 622.02 41.04, 622.02 80.39 M622.02 80.39 C415.86 80.39, 209.71 80.39, 0 80.39 M622.02 80.39 C382.09 80.39, 142.16 80.39, 0 80.39 M0 80.39 C0 63.66, 0 46.93, 0 0 M0 80.39 C0 60.96, 0 41.52, 0 0" stroke="#000000" stroke-width="1" fill="none"></path></g><g transform="translate(26.015625 31.130859375) rotate(0 76.5 12)"><text x="76.5" y="19" font-family="Cascadia, Segoe UI Emoji" font-size="20px" fill="#000000" text-anchor="middle" style="white-space: pre;" direction="ltr">WebSite Title</text></g><g stroke-linecap="round" transform="translate(169.4453125 110.296875) rotate(0 159.82421875 63.10546875)"><path d="M0 0 C97.73 0, 195.46 0, 319.65 0 M0 0 C103.94 0, 207.89 0, 319.65 0 M319.65 0 C319.65 30.52, 319.65 61.03, 319.65 126.21 M319.65 0 C319.65 29.68, 319.65 59.37, 319.65 126.21 M319.65 126.21 C231.4 126.21, 143.15 126.21, 0 126.21 M319.65 126.21 C224.89 126.21, 130.12 126.21, 0 126.21 M0 126.21 C0 85.52, 0 44.84, 0 0 M0 126.21 C0 77.13, 0 28.05, 0 0" stroke="#000000" stroke-width="1" fill="none"></path></g><g transform="translate(241.8984375 148.81640625) rotate(0 95 23)"><text x="0" y="18" font-family="Helvetica, Segoe UI Emoji" font-size="20px" fill="#000000" text-anchor="start" style="white-space: pre;" direction="ltr">introduction:</text><text x="0" y="41" font-family="Helvetica, Segoe UI Emoji" font-size="20px" fill="#000000" text-anchor="start" style="white-space: pre;" direction="ltr">with text or/and video</text></g><g stroke-linecap="round" transform="translate(27.953125 261.1484375) rotate(0 289.32421875 57.60546875)"><path d="M0 0 C175.1 0, 350.19 0, 578.65 0 M0 0 C212.05 0, 424.11 0, 578.65 0 M578.65 0 C578.65 26.29, 578.65 52.59, 578.65 115.21 M578.65 0 C578.65 23.65, 578.65 47.31, 578.65 115.21 M578.65 115.21 C402.7 115.21, 226.74 115.21, 0 115.21 M578.65 115.21 C443.9 115.21, 309.14 115.21, 0 115.21 M0 115.21 C0 85.69, 0 56.16, 0 0 M0 115.21 C0 91.92, 0 68.63, 0 0" stroke="#000000" stroke-width="1" fill="none"></path></g><g stroke-linecap="round" transform="translate(25.203125 396.39453125) rotate(0 295.072265625 58.6328125)"><path d="M0 0 C177.24 0, 354.48 0, 590.14 0 M0 0 C122.1 0, 244.2 0, 590.14 0 M590.14 0 C590.14 31.71, 590.14 63.43, 590.14 117.27 M590.14 0 C590.14 31.34, 590.14 62.68, 590.14 117.27 M590.14 117.27 C407.86 117.27, 225.58 117.27, 0 117.27 M590.14 117.27 C378.96 117.27, 167.77 117.27, 0 117.27 M0 117.27 C0 85.4, 0 53.54, 0 0 M0 117.27 C0 74.37, 0 31.48, 0 0" stroke="#000000" stroke-width="1" fill="none"></path></g><g stroke-linecap="round" transform="translate(11.77734375 544.3046875) rotate(0 309.470703125 25.107421875)"><path d="M0 0 C163.22 0, 326.44 0, 618.94 0 M0 0 C200.45 0, 400.9 0, 618.94 0 M618.94 0 C618.94 18.18, 618.94 36.37, 618.94 50.21 M618.94 0 C618.94 13.16, 618.94 26.33, 618.94 50.21 M618.94 50.21 C384.33 50.21, 149.71 50.21, 0 50.21 M618.94 50.21 C387.05 50.21, 155.17 50.21, 0 50.21 M0 50.21 C0 36.12, 0 22.03, 0 0 M0 50.21 C0 31.8, 0 13.39, 0 0" stroke="#000000" stroke-width="1" fill="none"></path></g><g transform="translate(185.626953125 557.294921875) rotate(0 143 11.5)"><text x="143" y="18" font-family="Helvetica, Segoe UI Emoji" font-size="20px" fill="#000000" text-anchor="middle" style="white-space: pre;" direction="ltr">footer with contact and nav links</text></g><g transform="translate(339.517578125 30.4453125) rotate(0 24 12)"><text x="24" y="19" font-family="Cascadia, Segoe UI Emoji" font-size="20px" fill="#000000" text-anchor="middle" style="white-space: pre;" direction="ltr">Home</text></g><g transform="translate(412.517578125 30.4453125) rotate(0 35.5 12)"><text x="35.5" y="19" font-family="Cascadia, Segoe UI Emoji" font-size="20px" fill="#000000" text-anchor="middle" style="white-space: pre;" direction="ltr">Skills</text></g><g transform="translate(501.017578125 31.4453125) rotate(0 59 12)"><text x="59" y="19" font-family="Cascadia, Segoe UI Emoji" font-size="20px" fill="#000000" text-anchor="middle" style="white-space: pre;" direction="ltr">Cheatsheet</text></g><g transform="translate(153.017578125 292.4453125) rotate(0 78 25)"><text x="0" y="18" font-family="Virgil, Segoe UI Emoji" font-size="20px" fill="#000000" text-anchor="start" style="white-space: pre;" direction="ltr">Skills</text><text x="0" y="43" font-family="Virgil, Segoe UI Emoji" font-size="20px" fill="#000000" text-anchor="start" style="white-space: pre;" direction="ltr">(hard and soft)</text></g><g transform="translate(147.017578125 435.4453125) rotate(0 148.5 25)"><text x="0" y="18" font-family="Virgil, Segoe UI Emoji" font-size="20px" fill="#000000" text-anchor="start" style="white-space: pre;" direction="ltr">Cheatsheets</text><text x="0" y="43" font-family="Virgil, Segoe UI Emoji" font-size="20px" fill="#000000" text-anchor="start" style="white-space: pre;" direction="ltr">(HTML, CSS, JavaScript, SQL)</text></g></svg>